{
	"accessors" : 
	[
		{
			"bufferView" : 2,
			"byteOffset" : 0,
			"componentType" : 5126,
			"count" : 9738,
			"max" : 
			[
				1,
				1,
				1,
				1
			],
			"min" : 
			[
				0.05637409910559654,
				0.05284162983298302,
				0.0328759141266346,
				1
			],
			"name" : "accessor_color_m0-PolyPaper21_-302760",
			"type" : "VEC4"
		},
		{
			"bufferView" : 2,
			"byteOffset" : 155808,
			"componentType" : 5126,
			"count" : 9792,
			"max" : 
			[
				1,
				1,
				1,
				1
			],
			"min" : 
			[
				1,
				1,
				1,
				1
			],
			"name" : "accessor_color_m1-PolyPaper21_-303896",
			"type" : "VEC4"
		},
		{
			"bufferView" : 2,
			"byteOffset" : 312480,
			"componentType" : 5126,
			"count" : 9792,
			"max" : 
			[
				1,
				1,
				1,
				1
			],
			"min" : 
			[
				1,
				1,
				1,
				1
			],
			"name" : "accessor_color_m2-PolyPaper21_-299640",
			"type" : "VEC4"
		},
		{
			"bufferView" : 2,
			"byteOffset" : 469152,
			"componentType" : 5126,
			"count" : 6120,
			"max" : 
			[
				1,
				1,
				1,
				1
			],
			"min" : 
			[
				1,
				1,
				1,
				1
			],
			"name" : "accessor_color_m3-PolyPaper21_-303936",
			"type" : "VEC4"
		},
		{
			"bufferView" : 0,
			"byteOffset" : 0,
			"componentType" : 5123,
			"count" : 14382,
			"max" : 
			[
				9737
			],
			"min" : 
			[
				0
			],
			"name" : "accessor_indices_0_m0-PolyPaper21_-302760",
			"type" : "SCALAR"
		},
		{
			"bufferView" : 0,
			"byteOffset" : 28764,
			"componentType" : 5123,
			"count" : 13824,
			"max" : 
			[
				9791
			],
			"min" : 
			[
				0
			],
			"name" : "accessor_indices_0_m1-PolyPaper21_-303896",
			"type" : "SCALAR"
		},
		{
			"bufferView" : 0,
			"byteOffset" : 56412,
			"componentType" : 5123,
			"count" : 13824,
			"max" : 
			[
				9791
			],
			"min" : 
			[
				0
			],
			"name" : "accessor_indices_0_m2-PolyPaper21_-299640",
			"type" : "SCALAR"
		},
		{
			"bufferView" : 0,
			"byteOffset" : 84060,
			"componentType" : 5123,
			"count" : 8640,
			"max" : 
			[
				6119
			],
			"min" : 
			[
				0
			],
			"name" : "accessor_indices_0_m3-PolyPaper21_-303936",
			"type" : "SCALAR"
		},
		{
			"bufferView" : 1,
			"byteOffset" : 116856,
			"componentType" : 5126,
			"count" : 9738,
			"max" : 
			[
				1,
				1,
				1
			],
			"min" : 
			[
				-1,
				-1,
				-1
			],
			"name" : "accessor_normal_m0-PolyPaper21_-302760",
			"type" : "VEC3"
		},
		{
			"bufferView" : 1,
			"byteOffset" : 351216,
			"componentType" : 5126,
			"count" : 9792,
			"max" : 
			[
				0.9659264,
				0.9837441,
				0.9659265
			],
			"min" : 
			[
				-0.9659263,
				-0.9837444,
				-0.9659273
			],
			"name" : "accessor_normal_m1-PolyPaper21_-303896",
			"type" : "VEC3"
		},
		{
			"bufferView" : 1,
			"byteOffset" : 586224,
			"componentType" : 5126,
			"count" : 9792,
			"max" : 
			[
				0.9659264,
				0.9837455000000001,
				0.9659281
			],
			"min" : 
			[
				-0.9659268,
				-0.9837484,
				-0.9659281
			],
			"name" : "accessor_normal_m2-PolyPaper21_-299640",
			"type" : "VEC3"
		},
		{
			"bufferView" : 1,
			"byteOffset" : 777168,
			"componentType" : 5126,
			"count" : 6120,
			"max" : 
			[
				0.9659262,
				0.983744,
				0.9659269
			],
			"min" : 
			[
				-0.9659263,
				-0.983744,
				-0.9659269
			],
			"name" : "accessor_normal_m3-PolyPaper21_-303936",
			"type" : "VEC3"
		},
		{
			"bufferView" : 1,
			"byteOffset" : 0,
			"componentType" : 5126,
			"count" : 9738,
			"max" : 
			[
				0.05003765,
				3.030021,
				1.014147
			],
			"min" : 
			[
				-1.344858,
				0.6309327,
				-0.729961
			],
			"name" : "accessor_position_m0-PolyPaper21_-302760",
			"type" : "VEC3"
		},
		{
			"bufferView" : 1,
			"byteOffset" : 233712,
			"componentType" : 5126,
			"count" : 9792,
			"max" : 
			[
				0.2621856,
				2.070024,
				1.385051
			],
			"min" : 
			[
				-0.409986,
				0.9928566,
				-0.6206042000000001
			],
			"name" : "accessor_position_m1-PolyPaper21_-303896",
			"type" : "VEC3"
		},
		{
			"bufferView" : 1,
			"byteOffset" : 468720,
			"componentType" : 5126,
			"count" : 9792,
			"max" : 
			[
				0.1493646,
				2.872472,
				1.460027
			],
			"min" : 
			[
				-0.4700376,
				1.910035,
				-0.3200383
			],
			"name" : "accessor_position_m2-PolyPaper21_-299640",
			"type" : "VEC3"
		},
		{
			"bufferView" : 1,
			"byteOffset" : 703728,
			"componentType" : 5126,
			"count" : 6120,
			"max" : 
			[
				0.5156787,
				1.720035,
				1.410002
			],
			"min" : 
			[
				-0.1123708,
				1.044247,
				-0.4000099
			],
			"name" : "accessor_position_m3-PolyPaper21_-303936",
			"type" : "VEC3"
		}
	],
	"asset" : 
	{
		"copyright" : "Unknown",
		"generator" : "glTF 1-to-2 Upgrader for Google Blocks",
		"version" : "2.0"
	},
	"bufferViews" : 
	[
		{
			"buffer" : 0,
			"byteLength" : 101340,
			"byteOffset" : 0,
			"name" : "ushortBufferView",
			"target" : 34963
		},
		{
			"buffer" : 0,
			"byteLength" : 850608,
			"byteOffset" : 101340,
			"byteStride" : 12,
			"name" : "vec3BufferView",
			"target" : 34962
		},
		{
			"buffer" : 0,
			"byteLength" : 567072,
			"byteOffset" : 951948,
			"byteStride" : 16,
			"name" : "vec4BufferView",
			"target" : 34962
		}
	],
	"buffers" : 
	[
		{
			"byteLength" : 1519020,
			"name" : "model",
			"uri" : "model.bin"
		}
	],
	"materials" : 
	[
		{
			"alphaMode" : "OPAQUE",
			"doubleSided" : false,
			"name" : "BlocksPaper",
			"pbrMetallicRoughness" : 
			{
				"baseColorFactor" : 
				[
					1,
					1,
					1,
					1
				],
				"metallicFactor" : 0,
				"roughnessFactor" : 0.6
			}
		},
		{
			"alphaMode" : "BLEND",
			"doubleSided" : false,
			"name" : "BlocksGlass",
			"pbrMetallicRoughness" : 
			{
				"baseColorFactor" : 
				[
					0.2,
					0.2,
					1,
					0.3
				],
				"metallicFactor" : 1,
				"roughnessFactor" : 0.4
			}
		},
		{
			"alphaMode" : "OPAQUE",
			"doubleSided" : true,
			"name" : "BlocksGem",
			"pbrMetallicRoughness" : 
			{
				"baseColorFactor" : 
				[
					1,
					0.4,
					1,
					1
				],
				"metallicFactor" : 0,
				"roughnessFactor" : 0.1
			}
		}
	],
	"meshes" : 
	[
		{
			"name" : "mesh_m0-PolyPaper21_-302760",
			"primitives" : 
			[
				{
					"attributes" : 
					{
						"COLOR_0" : 0,
						"NORMAL" : 8,
						"POSITION" : 12
					},
					"indices" : 4,
					"material" : 0,
					"mode" : 4
				}
			]
		},
		{
			"name" : "mesh_m1-PolyPaper21_-303896",
			"primitives" : 
			[
				{
					"attributes" : 
					{
						"COLOR_0" : 1,
						"NORMAL" : 9,
						"POSITION" : 13
					},
					"indices" : 5,
					"material" : 0,
					"mode" : 4
				}
			]
		},
		{
			"name" : "mesh_m2-PolyPaper21_-299640",
			"primitives" : 
			[
				{
					"attributes" : 
					{
						"COLOR_0" : 2,
						"NORMAL" : 10,
						"POSITION" : 14
					},
					"indices" : 6,
					"material" : 0,
					"mode" : 4
				}
			]
		},
		{
			"name" : "mesh_m3-PolyPaper21_-303936",
			"primitives" : 
			[
				{
					"attributes" : 
					{
						"COLOR_0" : 3,
						"NORMAL" : 11,
						"POSITION" : 15
					},
					"indices" : 7,
					"material" : 0,
					"mode" : 4
				}
			]
		}
	],
	"nodes" : 
	[
		{
			"matrix" : 
			[
				1,
				0,
				0,
				0,
				0,
				1,
				0,
				0,
				0,
				0,
				1,
				0,
				0,
				0,
				0,
				1
			],
			"mesh" : 2,
			"name" : "node_MeshObject-1630036416-PolyPaper21"
		},
		{
			"matrix" : 
			[
				1,
				0,
				0,
				0,
				0,
				1,
				0,
				0,
				0,
				0,
				1,
				0,
				0,
				0,
				0,
				1
			],
			"mesh" : 0,
			"name" : "node_MeshObject1085095104-PolyPaper21"
		},
		{
			"matrix" : 
			[
				1,
				0,
				0,
				0,
				0,
				1,
				0,
				0,
				0,
				0,
				1,
				0,
				0,
				0,
				0,
				1
			],
			"mesh" : 1,
			"name" : "node_MeshObject2133486400-PolyPaper21"
		},
		{
			"matrix" : 
			[
				1,
				0,
				0,
				0,
				0,
				1,
				0,
				0,
				0,
				0,
				1,
				0,
				0,
				0,
				0,
				1
			],
			"mesh" : 3,
			"name" : "node_MeshObject432119424-PolyPaper21"
		}
	],
	"scene" : 0,
	"scenes" : 
	[
		{
			"extras" : {},
			"name" : "defaultScene",
			"nodes" : 
			[
				1,
				2,
				0,
				3
			]
		}
	]
}